<svg width="30" height="30" viewBox="0 0 30 30" fill="none" xmlns="http://www.w3.org/2000/svg">
<path d="M8.49275 17H17.4928C17.7698 17 17.9928 17.223 17.9928 17.5C17.9928 17.777 17.7698 18 17.4928 18H8.49275C8.21575 18 7.99275 17.777 7.99275 17.5C7.99275 17.223 8.21575 17 8.49275 17ZM12.9928 19C11.8928 19 10.9928 19.9 10.9928 21C10.9928 22.1 11.8928 23 12.9928 23C14.0928 23 14.9928 22.1 14.9928 21C14.9928 19.9 14.0928 19 12.9928 19ZM12.9928 20C13.5508 20 13.9928 20.442 13.9928 21C13.9928 21.558 13.5508 22 12.9928 22C12.4348 22 11.9928 21.558 11.9928 21C11.9928 20.442 12.4348 20 12.9928 20ZM12.9928 12C11.8928 12 10.9928 12.9 10.9928 14C10.9928 15.1 11.8928 16 12.9928 16C14.0928 16 14.9928 15.1 14.9928 14C14.9928 12.9 14.0928 12 12.9928 12ZM12.9928 13C13.5508 13 13.9928 13.442 13.9928 14C13.9928 14.558 13.5508 15 12.9928 15C12.4348 15 11.9928 14.558 11.9928 14C11.9928 13.442 12.4348 13 12.9928 13ZM24.9928 3C23.8928 3 22.9928 3.9 22.9928 5C22.9928 6.1 23.8928 7 24.9928 7C26.0928 7 26.9928 6.1 26.9928 5C26.9928 3.9 26.0928 3 24.9928 3ZM24.9928 4C25.5508 4 25.9928 4.442 25.9928 5C25.9928 5.558 25.5508 6 24.9928 6C24.4348 6 23.9928 5.558 23.9928 5C23.9928 4.442 24.4348 4 24.9928 4ZM0.438751 15.67C-0.148249 16.25 -0.144249 17.212 0.438751 17.794L12.1988 29.554C12.7788 30.136 13.7408 30.141 14.3218 29.554L28.8478 14.85C29.0948 14.6 29.3798 14.37 29.6158 13.994C29.8508 13.618 29.9918 13.124 29.9918 12.45V1.5C29.9918 0.677 29.3138 0 28.4918 0H17.4918C16.3338 0 15.6678 0.624 15.1418 1.145L0.438751 15.67ZM1.14175 16.382L15.8428 1.856C16.3758 1.33 16.6508 1 17.4928 1H28.4928C28.7778 1 28.9928 1.214 28.9928 1.5V12.452C28.9928 12.999 28.8998 13.257 28.7688 13.465C28.6388 13.675 28.4248 13.859 28.1388 14.149L13.6088 28.849C13.4118 29.049 13.1088 29.049 12.9058 28.847L1.14575 17.087C0.942751 16.884 0.940751 16.58 1.14175 16.382Z" fill="white"/>
</svg>
