<svg width="52" height="61" viewBox="0 0 52 61" fill="none" xmlns="http://www.w3.org/2000/svg">
<path d="M26 21C22.6377 21 19.3509 21.997 16.5553 23.865C13.7597 25.733 11.5807 28.388 10.2941 31.4944C9.00737 34.6007 8.67071 38.0189 9.32666 41.3165C9.98261 44.6142 11.6017 47.6433 13.9792 50.0208C16.3567 52.3983 19.3858 54.0174 22.6835 54.6734C25.9811 55.3293 29.3993 54.9926 32.5056 53.706C35.612 52.4193 38.267 50.2403 40.135 47.4447C42.003 44.6491 43 41.3623 43 38C42.995 33.4929 41.2023 29.1718 38.0153 25.9847C34.8282 22.7977 30.5071 21.005 26 21ZM26 53C23.0333 53 20.1332 52.1203 17.6665 50.472C15.1997 48.8238 13.2771 46.4811 12.1418 43.7402C11.0065 40.9994 10.7095 37.9834 11.2882 35.0736C11.867 32.1639 13.2956 29.4912 15.3934 27.3934C17.4912 25.2956 20.1639 23.867 23.0737 23.2882C25.9834 22.7094 28.9994 23.0065 31.7403 24.1418C34.4811 25.2771 36.8238 27.1997 38.4721 29.6664C40.1203 32.1332 41 35.0333 41 38C40.9955 41.9769 39.4137 45.7896 36.6016 48.6016C33.7896 51.4137 29.9769 52.9955 26 53Z" fill="white"/>
<path d="M29.9996 45H26.9996V30C26.9996 29.8295 26.9561 29.6619 26.8731 29.513C26.7901 29.3641 26.6704 29.2389 26.5254 29.1492C26.3803 29.0596 26.2148 29.0085 26.0445 29.0009C25.8742 28.9932 25.7048 29.0292 25.5523 29.1055L21.5523 31.1055C21.4348 31.1642 21.3301 31.2455 21.2441 31.3448C21.158 31.444 21.0923 31.5592 21.0508 31.6838C21.0093 31.8084 20.9927 31.9399 21.002 32.0709C21.0113 32.2019 21.0464 32.3298 21.1051 32.4473C21.1639 32.5648 21.2452 32.6695 21.3444 32.7556C21.4436 32.8416 21.5588 32.9073 21.6834 32.9488C21.808 32.9903 21.9396 33.0069 22.0706 32.9976C22.2016 32.9883 22.3294 32.9532 22.4469 32.8945L24.9996 31.6182V45H21.9996C21.7344 45 21.48 45.1054 21.2925 45.2929C21.105 45.4804 20.9996 45.7348 20.9996 46C20.9996 46.2652 21.105 46.5196 21.2925 46.7071C21.48 46.8946 21.7344 47 21.9996 47H29.9996C30.2648 47 30.5192 46.8946 30.7067 46.7071C30.8943 46.5196 30.9996 46.2652 30.9996 46C30.9996 45.7348 30.8943 45.4804 30.7067 45.2929C30.5192 45.1054 30.2648 45 29.9996 45Z" fill="#1498D5"/>
<path d="M51.8348 0.45C51.7437 0.311735 51.6198 0.19824 51.474 0.119698C51.3283 0.041157 51.1653 2.72923e-05 50.9998 3.15859e-08H36.9998C36.8041 -4.91555e-05 36.6127 0.05735 36.4494 0.165077C36.286 0.272804 36.1579 0.426118 36.0809 0.606L29.3724 16.2587C27.1405 15.906 24.8665 15.9138 22.6371 16.2819L15.9187 0.606C15.8417 0.426118 15.7135 0.272804 15.5502 0.165077C15.3868 0.05735 15.1955 -4.91555e-05 14.9998 3.15859e-08H0.99979C0.834318 3.48519e-05 0.67144 0.0411314 0.525759 0.119605C0.380078 0.198079 0.256147 0.311477 0.165077 0.449633C0.0740065 0.58779 0.0186433 0.746387 0.0039503 0.911205C-0.0107428 1.07602 0.0156938 1.24191 0.0808899 1.394L9.53599 23.4427C6.72797 26.6151 4.89595 30.531 4.26014 34.7197C3.62433 38.9083 4.2118 43.1915 5.95192 47.0543C7.69205 50.917 10.5108 54.195 14.0693 56.4942C17.6277 58.7934 21.7746 60.0159 26.0112 60.0148C30.2478 60.0137 34.394 58.789 37.9513 56.488C41.5086 54.1869 44.3256 50.9075 46.0637 47.0438C47.8018 43.1801 48.387 38.8966 47.749 34.7083C47.111 30.52 45.277 26.605 42.4673 23.4341L51.9187 1.3941C51.984 1.2421 52.0105 1.07625 51.9959 0.91146C51.9813 0.746668 51.9259 0.588098 51.8348 0.45ZM37.659 2H43.4832L36.3704 18.5906C35.8027 18.2872 35.2185 18.0153 34.6246 17.7631C34.5812 17.7444 34.5379 17.7258 34.4946 17.7075C34.2177 17.592 33.9392 17.4809 33.6572 17.3768C33.5232 17.3268 33.3872 17.2812 33.2523 17.2339C33.0272 17.1558 32.8034 17.0752 32.5753 17.0039C32.1975 16.8853 31.8154 16.777 31.4289 16.6789C31.4108 16.6743 31.3934 16.6682 31.3753 16.6637L37.659 2ZM14.3406 2L20.6248 16.6641C20.5295 16.6879 20.4371 16.7192 20.3422 16.7441C20.1686 16.7899 19.9973 16.8408 19.8254 16.8906C19.4801 16.9906 19.1382 17.0989 18.7998 17.2154C18.6281 17.2746 18.4565 17.3333 18.2866 17.3966C17.9228 17.5319 17.5649 17.679 17.2099 17.8333C17.0824 17.8886 16.9525 17.9389 16.8262 17.9967C16.4207 18.1821 16.0217 18.38 15.6292 18.5905L8.51639 2H14.3406ZM2.51689 2H6.34059L13.8948 19.62C13.8074 19.6777 13.7256 19.7444 13.639 19.8034C13.35 20.0005 13.0655 20.2045 12.7856 20.4154C12.6356 20.5285 12.4867 20.6416 12.3397 20.7587C12.0451 20.9934 11.7577 21.2381 11.4743 21.4887C11.3611 21.5887 11.2443 21.6845 11.1333 21.7872C11.1021 21.816 11.0689 21.8419 11.0379 21.8708L2.51689 2ZM45.9998 38C46.0005 41.2632 45.2028 44.4771 43.6762 47.3612C42.1496 50.2453 39.9404 52.712 37.2415 54.5462C34.5426 56.3804 31.4358 57.5264 28.1922 57.8841C24.9487 58.2418 21.6669 57.8004 18.6331 56.5985C15.5993 55.3965 12.9057 53.4705 10.7872 50.9884C8.6688 48.5063 7.18987 45.5435 6.47947 42.3586C5.76907 39.1736 5.84878 35.8632 6.71165 32.7162C7.57452 29.5691 9.19434 26.681 11.4298 24.3037C11.7915 23.9175 12.1659 23.5475 12.5531 23.1937C16.2336 19.8507 21.0277 17.999 25.9998 18C27.3127 18.0012 28.6224 18.1316 29.9098 18.3893C30.0718 18.4214 30.2298 18.4651 30.3903 18.501C30.8427 18.6028 31.2913 18.7148 31.7316 18.8468C31.8846 18.8922 32.0358 18.9421 32.1874 18.9911C32.6789 19.1511 33.1639 19.3264 33.6379 19.5231C33.7079 19.5519 33.7786 19.5788 33.8479 19.6084C35.5884 20.3541 37.2145 21.3429 38.6774 22.5452C38.708 22.5704 38.738 22.5967 38.7684 22.6221C39.1977 22.9792 39.609 23.3568 40.0069 23.7479C40.0797 23.8197 40.1533 23.8903 40.2251 23.9634C43.926 27.6975 46.0016 32.7426 45.9998 38ZM40.9617 21.8711C40.0721 21.0456 39.1152 20.2955 38.1011 19.6288L45.659 2H49.4827L40.9617 21.8711Z" fill="white"/>
</svg>
